<?xml version="1.0" encoding="UTF-8"?>
<svg xmlns="http://www.w3.org/2000/svg" xmlns:xlink="http://www.w3.org/1999/xlink" width="16px" height="16px" viewBox="0 0 16 16" version="1.1">
<g id="surface1">
<path style=" stroke:none;fill-rule:nonzero;fill:rgb(0%,0%,0%);fill-opacity:1;" d="M 12.652344 1.917969 L 10.160156 1.917969 C 10.035156 0.839844 9.117188 0 8.007812 0 C 6.894531 0 5.980469 0.839844 5.855469 1.917969 L 3.363281 1.917969 C 2.351562 1.917969 1.53125 2.738281 1.53125 3.75 L 1.53125 3.84375 C 1.53125 4.613281 2.011719 5.273438 2.6875 5.542969 L 2.6875 14.183594 C 2.6875 15.195312 3.507812 16.015625 4.519531 16.015625 L 11.496094 16.015625 C 12.503906 16.015625 13.324219 15.195312 13.324219 14.183594 L 13.324219 5.542969 C 14.003906 5.273438 14.480469 4.613281 14.480469 3.84375 L 14.480469 3.75 C 14.480469 2.738281 13.660156 1.917969 12.652344 1.917969 Z M 8.007812 0.867188 C 8.640625 0.867188 9.167969 1.320312 9.285156 1.917969 L 6.730469 1.917969 C 6.847656 1.320312 7.375 0.867188 8.007812 0.867188 Z M 12.457031 14.183594 C 12.457031 14.714844 12.027344 15.148438 11.496094 15.148438 L 4.519531 15.148438 C 3.988281 15.148438 3.554688 14.714844 3.554688 14.183594 L 3.554688 5.671875 L 12.457031 5.671875 Z M 13.613281 3.84375 C 13.613281 4.371094 13.183594 4.804688 12.652344 4.804688 L 3.363281 4.804688 C 2.832031 4.804688 2.398438 4.371094 2.398438 3.84375 L 2.398438 3.75 C 2.398438 3.21875 2.832031 2.785156 3.363281 2.785156 L 12.652344 2.785156 C 13.183594 2.785156 13.613281 3.21875 13.613281 3.75 Z M 13.613281 3.84375 "/>
<path style=" stroke:none;fill-rule:nonzero;fill:rgb(0%,0%,0%);fill-opacity:1;" d="M 5.679688 14.035156 C 5.921875 14.035156 6.113281 13.84375 6.113281 13.601562 L 6.113281 8.71875 C 6.113281 8.480469 5.921875 8.285156 5.679688 8.285156 C 5.441406 8.285156 5.246094 8.480469 5.246094 8.71875 L 5.246094 13.601562 C 5.246094 13.84375 5.441406 14.035156 5.679688 14.035156 Z M 5.679688 14.035156 "/>
<path style=" stroke:none;fill-rule:nonzero;fill:rgb(0%,0%,0%);fill-opacity:1;" d="M 8.007812 14.035156 C 8.246094 14.035156 8.441406 13.84375 8.441406 13.601562 L 8.441406 8.71875 C 8.441406 8.480469 8.246094 8.285156 8.007812 8.285156 C 7.765625 8.285156 7.574219 8.480469 7.574219 8.71875 L 7.574219 13.601562 C 7.574219 13.84375 7.765625 14.035156 8.007812 14.035156 Z M 8.007812 14.035156 "/>
<path style=" stroke:none;fill-rule:nonzero;fill:rgb(0%,0%,0%);fill-opacity:1;" d="M 10.332031 14.035156 C 10.574219 14.035156 10.765625 13.84375 10.765625 13.601562 L 10.765625 8.71875 C 10.765625 8.480469 10.574219 8.285156 10.332031 8.285156 C 10.09375 8.285156 9.898438 8.480469 9.898438 8.71875 L 9.898438 13.601562 C 9.898438 13.84375 10.09375 14.035156 10.332031 14.035156 Z M 10.332031 14.035156 "/>
</g>
</svg>
